# Blender v2.78 (sub 0) OBJ File: ''
# www.blender.org
o Cube
v 0.75 0.0 -0.25
v 0.75 0.0 0.75
v -0.25 0.0 0.75
v -0.25 0.0 -0.25
v 0.75 1.0 -0.25
v 0.75 1.0 0.75
v -0.25 1.0 0.75
v -0.25 1.0 -0.25
v -0.25 1.0 -0.25
v 0.75 1.0 -0.25
v -0.25 0.0 -0.25
v 0.75 0.0 -0.25
vt 0.0001 0.9999
vt 0.9999 0.0001
vt 0.9999 0.9999
vt 0.0001 0.9999
vt 0.9999 0.0001
vt 0.9999 0.9999
vt 0.0001 0.0001
vt 0.9999 0.0001
vt 0.9999 0.9999
vt 0.0001 0.0001
vt 0.9999 0.0001
vt 0.0001 0.9999
vt 0.9999 0.0001
vt 0.9999 0.9999
vt 0.9999 0.9999
vt 0.0001 0.0001
vt 0.9999 0.0001
vt 0.0001 0.0001
vt 0.0001 0.9999
vt 0.0001 0.9999
vt 0.0001 0.9999
vn 0.0000 -1.0000 0.0000
vn 0.0000 1.0000 0.0000
vn 1.0000 -0.0000 0.0000
vn 0.0000 -0.0000 1.0000
vn -1.0000 -0.0000 -0.0000
vn 0.0000 0.0000 -1.0000
s off
f 2/1/1 4/2/1 1/3/1
f 8/4/2 6/5/2 5/6/2
f 5/6/3 2/7/3 1/8/3
f 6/9/4 3/10/4 2/11/4
f 3/12/5 8/13/5 4/14/5
f 12/15/6 9/16/6 10/17/6
f 2/1/1 3/10/1 4/2/1
f 8/4/2 7/18/2 6/5/2
f 5/6/3 6/19/3 2/7/3
f 6/9/4 7/20/4 3/10/4
f 3/12/5 7/18/5 8/13/5
f 12/15/6 11/21/6 9/16/6
